<?xml version="1.0" encoding="UTF-8"?>
<svg id="_レイヤー_2" data-name="レイヤー 2" xmlns="http://www.w3.org/2000/svg" viewBox="0 0 132.36 132.36">
  <defs>
    <style>
      .cls-1 {
        fill: #231815;
      }

      .cls-2 {
        fill: #fff;
      }

      .cls-3 {
        fill: #e71f19;
      }
    </style>
  </defs>
  <g id="_レイヤー_6" data-name="レイヤー 6">
    <g>
      <g>
        <circle class="cls-2" cx="66.18" cy="66.18" r="66.18"/>
        <path class="cls-3" d="M66.18,0C29.63,0,0,29.63,0,66.18s29.63,66.18,66.18,66.18,66.18-29.63,66.18-66.18S102.73,0,66.18,0ZM66.18,128.04c-34.17,0-61.86-27.69-61.86-61.86S32.02,4.32,66.18,4.32s61.86,27.69,61.86,61.86-27.69,61.86-61.86,61.86Z"/>
        <path class="cls-3" d="M66.18,23.18c-23.9,0-43.28,19.38-43.28,43.28s19.38,43.28,43.28,43.28,43.28-19.38,43.28-43.28-19.38-43.28-43.28-43.28ZM66.18,107.12c-22.49,0-40.71-18.23-40.71-40.71s18.23-40.71,40.71-40.71,40.71,18.23,40.71,40.71-18.23,40.71-40.71,40.71Z"/>
        <path class="cls-3" d="M67.81,101.25c-.17,0-.35,0-.52,0-14.4-.59-26.98-27.68-28.99-45.33-1.16-10.23,1.04-16.88,6.04-18.25.64-.18,1.31-.26,1.97-.26,9.46,0,17.96,17.85,22.53,27.44.73,1.52,1.33,2.78,1.79,3.69.37-.36.76-.74,1.18-1.14,5.25-5.08,14.05-13.57,20.9-13.57,1.01,0,1.95.19,2.79.55.97.41,1.64,1.29,2.01,2.59,1.19,4.33-1.4,12.68-4.34,16.71-.16.22-.41.36-.68.36h0c-.29,0-.57-.15-.73-.4s-.18-.53-.06-.81c1.49-3.44,2.07-8.85,1.45-13.47-8.41,10.29-15.79,15.26-22.48,15.26-9.87,0-15.86-11.19-20.25-19.37-.5-.92-.97-1.82-1.44-2.66,3.11,27.8,10.09,43.74,19.16,43.74h0c7.53,0,15.79-11.46,21.05-29.2,0,0,.15-.57.85-.45.7.12.62.77.62.77-.49,2.64-2.42,11.91-6.66,20.3-4.54,8.98-9.99,13.52-16.22,13.52h0Z"/>
        <path class="cls-3" d="M66.18,0C29.63,0,0,29.63,0,66.18s29.63,66.18,66.18,66.18,66.18-29.63,66.18-66.18S102.73,0,66.18,0ZM66.18,128.04c-34.17,0-61.86-27.69-61.86-61.86S32.02,4.32,66.18,4.32s61.86,27.69,61.86,61.86-27.69,61.86-61.86,61.86Z"/>
        <g>
          <path class="cls-1" d="M22.12,37.45l-1.72-6.6,2.58-3.52,1.72,7.93,8.93-.77-2.7,3.69-7.2.43,4.49,3.28-2.08,2.85-10.34-7.57,2.08-2.85,4.27,3.12Z"/>
          <path class="cls-1" d="M33.8,18.47l3.63,5.95c.2.32.41.64.64.96.23.32.49.57.78.77.29.19.63.29,1.01.29s.82-.15,1.32-.46c.5-.31.84-.63,1.01-.96.17-.33.24-.68.21-1.03-.03-.35-.14-.7-.31-1.05-.18-.35-.36-.68-.56-1l-3.63-5.95,3-1.83,3.87,6.34c1.04,1.7,1.38,3.2,1.04,4.49-.35,1.29-1.38,2.45-3.09,3.5s-3.22,1.43-4.53,1.15c-1.31-.28-2.48-1.27-3.52-2.97l-3.87-6.34,3.02-1.84Z"/>
          <path class="cls-1" d="M64.68,21.16l-4.33.73-4.14-4.3.82,4.86-3.48.59-2.13-12.64,5.42-.92c.75-.13,1.42-.13,2.01-.02.59.11,1.1.32,1.52.61.42.3.76.66,1.03,1.1.26.44.44.93.53,1.46.16.96.05,1.78-.34,2.46-.39.68-1.05,1.21-1.97,1.58l5.09,4.47ZM55.84,15.46l.66-.11c.69-.12,1.19-.34,1.51-.67.32-.33.44-.75.36-1.25-.08-.5-.33-.86-.75-1.06s-.96-.25-1.65-.14l-.66.11.53,3.12Z"/>
          <path class="cls-1" d="M74.93,9.42l-1.57,12.72-3.5-.43,1.57-12.72,3.5.43Z"/>
          <path class="cls-1" d="M92.12,19.5c-.38-1.19-1.12-2.02-2.22-2.5-.49-.21-.97-.32-1.46-.33-.49-.01-.94.06-1.36.22-.42.16-.8.4-1.14.72-.34.32-.61.71-.81,1.17-.2.47-.3.94-.3,1.41s.09.92.27,1.34c.18.42.43.81.77,1.15.34.34.74.62,1.21.82,1.04.45,2.15.43,3.33-.04l-1.56,3.62-.38-.03c-.57-.05-1.08-.13-1.55-.23s-.91-.25-1.32-.43c-.86-.37-1.62-.88-2.27-1.53-.66-.65-1.16-1.38-1.52-2.2s-.56-1.69-.59-2.61c-.03-.92.14-1.84.54-2.74.39-.9.93-1.66,1.61-2.26.68-.6,1.44-1.04,2.28-1.33.84-.29,1.72-.41,2.65-.38.93.04,1.83.24,2.7.62.5.21.96.47,1.4.78.44.31.88.68,1.31,1.11l-1.58,3.65Z"/>
          <path class="cls-1" d="M102.08,27.73l3.58,3.63,3.52-3.47,2.48,2.52-9.13,9-2.48-2.52,3.77-3.71-3.58-3.63-3.77,3.71-2.48-2.52,9.13-9,2.48,2.52-3.52,3.47Z"/>
          <path class="cls-1" d="M118.78,42.48l-11.47,5.73-1.58-3.16,11.47-5.73,1.58,3.16Z"/>
        </g>
      </g>
      <g>
        <path class="cls-1" d="M24.11,89.12l-4.37,7.25,8.25-1.93,2.26,3.1-13.73,2.92-1.66-2.27,6.99-12.17,2.26,3.1Z"/>
        <path class="cls-1" d="M31.65,106.67c-.26-.62-.62-1.11-1.05-1.49-.23-.2-.45-.31-.66-.35-.22-.04-.39.02-.51.17-.07.08-.11.15-.13.22-.02.07,0,.15.03.26.04.11.12.25.24.41s.28.38.48.64c.57.72.89,1.38.94,2,.05.62-.14,1.19-.58,1.7-.33.39-.71.67-1.14.83-.43.17-.88.23-1.35.19-.47-.04-.96-.18-1.47-.41-.51-.24-1.01-.57-1.5-.99-.95-.81-1.67-1.87-2.15-3.17l2.32-.88c.31,1.04.77,1.83,1.39,2.36.23.2.46.31.68.34.23.03.4-.03.53-.17.07-.09.12-.17.15-.24s.02-.17-.01-.28c-.03-.11-.1-.25-.21-.41-.11-.16-.26-.36-.45-.6-.64-.8-.99-1.48-1.05-2.03-.06-.55.13-1.08.57-1.59.32-.37.68-.64,1.08-.81.4-.17.83-.24,1.28-.21.45.03.92.15,1.4.37.48.22.96.53,1.44.94.77.67,1.4,1.45,1.89,2.36l-2.14.81Z"/>
        <path class="cls-1" d="M38.12,108.68l.06,5.1,4.03-3.18,1.86.87.09,5.26,4.11-3.3,3.28,1.53-8.07,5.86-1.98-.92-.07-5.3-4.01,3.4-2.01-.94-.6-9.91,3.3,1.54Z"/>
        <path class="cls-1" d="M67.19,118.92c-.55-.38-1.11-.59-1.69-.61-.31-.01-.6.03-.88.12-.27.09-.52.23-.73.41-.21.18-.38.39-.5.65-.12.25-.19.53-.2.85-.01.31.04.59.14.85.1.26.25.49.44.68.19.19.42.35.7.46.27.11.56.17.88.19.61.02,1.19-.15,1.73-.53l-.1,2.62c-.82.3-1.58.44-2.31.41-.67-.02-1.31-.16-1.91-.39-.6-.24-1.12-.57-1.57-.98-.45-.42-.8-.91-1.05-1.48-.26-.57-.37-1.2-.35-1.89.03-.69.18-1.32.47-1.88.28-.56.66-1.04,1.13-1.44.47-.4,1.03-.7,1.67-.91.64-.21,1.32-.3,2.04-.27.79.03,1.52.21,2.18.56l-.1,2.62Z"/>
        <path class="cls-1" d="M70.25,120.37c-.11-.64-.08-1.25.09-1.85s.47-1.15.88-1.64c.41-.49.93-.92,1.56-1.27.63-.35,1.34-.6,2.13-.74.78-.14,1.53-.15,2.23-.04s1.35.32,1.91.65c.56.32,1.03.74,1.4,1.25.37.52.62,1.11.74,1.79s.09,1.33-.08,1.94c-.18.61-.47,1.17-.89,1.66-.41.49-.94.91-1.58,1.26-.64.34-1.36.59-2.15.73-.78.14-1.52.16-2.22.05-.7-.11-1.33-.32-1.88-.65-.55-.33-1.02-.75-1.39-1.28-.37-.53-.62-1.14-.75-1.84ZM73.65,119.8c.05.29.15.54.31.76.16.22.34.4.56.55.21.15.46.25.73.3.27.06.55.06.83,0,.28-.05.54-.15.78-.29.24-.15.43-.32.58-.54.15-.21.26-.45.33-.71.07-.26.08-.53.03-.81-.05-.27-.15-.51-.3-.73-.16-.22-.34-.4-.56-.55s-.46-.25-.73-.3c-.27-.06-.55-.06-.83,0-.28.05-.54.15-.78.29-.24.15-.43.32-.58.54-.15.21-.26.44-.33.7s-.08.52-.03.78Z"/>
        <path class="cls-1" d="M85.22,119.86c-.1-.25-.14-.51-.13-.78.01-.27.08-.52.19-.76s.27-.45.48-.64c.2-.19.44-.33.71-.44.27-.1.54-.15.82-.15.28,0,.54.05.78.15s.46.24.65.43c.19.19.33.41.43.66s.14.51.13.78c-.01.27-.08.52-.19.76-.11.24-.27.45-.48.64-.2.19-.44.33-.71.44-.27.1-.54.15-.82.15s-.54-.05-.78-.15c-.24-.1-.46-.24-.65-.43s-.33-.41-.43-.66Z"/>
        <path class="cls-1" d="M92.69,114.86l2.69-1.46-.23,6.53-1.84,1-.63-6.06Z"/>
        <path class="cls-1" d="M94.65,100.78l8.22,11.47-2.65,1.9-8.22-11.47,2.65-1.9Z"/>
        <path class="cls-1" d="M104.56,102.67l4.2,4.5-2.38,2.23-4.2-4.5-.79.74-1.75-1.88.79-.74-1.79-1.91,2.38-2.23,1.79,1.91,1.36-1.27,1.75,1.88-1.36,1.27Z"/>
        <path class="cls-1" d="M105.49,89.12l1.91-2.67,11.47,8.22-1.91,2.67-.79-.56c.27,1.05.05,2.06-.64,3.02-.39.55-.85.98-1.37,1.3s-1.08.53-1.66.63-1.18.08-1.77-.06-1.16-.4-1.7-.78c-.51-.36-.92-.8-1.25-1.31-.33-.51-.54-1.05-.64-1.63-.1-.58-.09-1.17.05-1.77.13-.61.4-1.19.8-1.74.67-.94,1.54-1.49,2.59-1.67l-5.08-3.64ZM111,98.12c.23.17.48.27.74.33.26.05.52.06.78.01.26-.05.5-.14.73-.29.23-.15.44-.35.61-.59.17-.23.29-.49.35-.76.07-.27.08-.53.04-.79-.04-.26-.12-.5-.25-.73-.13-.23-.3-.43-.52-.58-.22-.16-.46-.26-.73-.31s-.52-.05-.78,0c-.26.05-.5.14-.73.29s-.43.34-.6.58-.29.49-.35.76c-.07.27-.08.53-.04.79.04.26.12.5.24.73.12.23.29.42.51.58Z"/>
      </g>
    </g>
  </g>
</svg>